# xmcd
#
# Track frame offsets: 
#        150
#        22124
#        50448
#        80708
#        107925
#        125263
#        145391
#        169263
#        192319
#        215056
#        234568
#        239768
#        266338
#        293113
#        318066
#        347502
#
# Disc length: 4799 seconds
#
# Revision: 1
# Processed by: cddbd v1.5.2PL0 Copyright (c) Steve Scherf et al.
# Submitted via: ExactAudioCopy v0.95b4
#
DISCID=f512bd10
DTITLE=Monday Michiru - Free Soul Collection
DYEAR=2005
DGENRE=Soul
TTITLE0=Lovin' you (Accoustic Live Version)
TTITLE1=Play It by Ear
TTITLE2=You Make Me (Single Version)
TTITLE3=Conversations With Myself
TTITLE4=Sunshine After The Rain (Radio Edit)
TTITLE5=How Deep Is Your Love
TTITLE6=Chasing After The Sun(Barefoot'n Pregnant Version)
TTITLE7=Leaf In The Wind
TTITLE8=Groovement
TTITLE9=Mermaid
TTITLE10=Maiden Voyage-Gone-
TTITLE11=Chances
TTITLE12=Tatoo My Heart
TTITLE13=Look Into The Past
TTITLE14=Thinking Of You
TTITLE15=Stop n'Listen
EXTD=YEAR: 2005
EXTT0=
EXTT1=
EXTT2=
EXTT3=
EXTT4=
EXTT5=
EXTT6=
EXTT7=
EXTT8=
EXTT9=
EXTT10=
EXTT11=
EXTT12=
EXTT13=
EXTT14=
EXTT15=
PLAYORDER=
